<svg width="387" height="125" viewBox="0 0 387 125" fill="none" xmlns="http://www.w3.org/2000/svg">
<path d="M19 79L32 94L52.5 70L73 94L86 79L52.5 40L19 79Z" fill="#5C00EE" fill-opacity="0.9"/>
<path d="M52.5 79L66 94.5L52.5 110L39 94.5L52.5 79Z" fill="#4C85EF" fill-opacity="0.8"/>
<path d="M52.5 15L76 42.5L52.5 70L29 43L52.5 15Z" fill="#4C85EF" fill-opacity="0.7"/>
<path d="M94.056 51.088H97.992V43.648H104.808V51.088H111.432V56.896H104.808V66.16C104.808 67.408 105.048 68.32 105.528 68.896C106.04 69.472 106.936 69.76 108.216 69.76C109.624 69.76 110.968 69.504 112.248 68.992V74.656C110.36 75.392 108.392 75.76 106.344 75.76C103.528 75.76 101.432 75.056 100.056 73.648C98.68 72.208 97.992 70.224 97.992 67.696V56.896H94.056V51.088Z" fill="#6108EF"/>
<path d="M115.514 51.088H122.426V64.72C122.426 66.224 122.842 67.44 123.674 68.368C124.506 69.296 125.594 69.76 126.938 69.76C128.378 69.76 129.61 69.216 130.634 68.128C131.658 67.008 132.17 65.616 132.17 63.952V51.088H138.986V75.232H132.458V72.208C130.506 74.576 127.93 75.76 124.73 75.76C121.914 75.76 119.674 74.816 118.01 72.928C116.346 71.04 115.514 68.448 115.514 65.152V51.088Z" fill="#6108EF"/>
<path d="M144.819 75.232V51.088H151.395V53.968C152.867 51.696 155.091 50.56 158.067 50.56C159.091 50.56 160.083 50.736 161.043 51.088L160.995 57.76C159.875 57.344 158.739 57.136 157.587 57.136C155.699 57.136 154.227 57.712 153.171 58.864C152.147 59.984 151.635 61.52 151.635 63.472V75.232H144.819Z" fill="#6108EF"/>
<path d="M171.696 41.392V53.968C173.744 51.76 176.32 50.656 179.424 50.656C182.72 50.656 185.472 51.856 187.68 54.256C189.888 56.656 190.992 59.648 190.992 63.232C190.992 66.816 189.888 69.808 187.68 72.208C185.504 74.576 182.768 75.76 179.472 75.76C176.336 75.76 173.712 74.624 171.6 72.352V75.232H164.928V41.392H171.696ZM173.424 67.888C174.64 69.168 176.16 69.808 177.984 69.808C179.744 69.808 181.216 69.184 182.4 67.936C183.584 66.656 184.176 65.088 184.176 63.232C184.176 61.376 183.568 59.824 182.352 58.576C181.168 57.296 179.696 56.656 177.936 56.656C176.144 56.656 174.624 57.296 173.376 58.576C172.16 59.824 171.552 61.376 171.552 63.232C171.552 65.088 172.176 66.64 173.424 67.888Z" fill="#6108EF"/>
<path d="M197.748 54.16C200.18 51.76 203.316 50.56 207.156 50.56C210.964 50.56 214.084 51.776 216.516 54.208C218.98 56.608 220.212 59.616 220.212 63.232C220.212 66.88 218.98 69.872 216.516 72.208C214.052 74.576 210.932 75.76 207.156 75.76C203.38 75.76 200.244 74.576 197.748 72.208C195.284 69.84 194.052 66.848 194.052 63.232C194.052 59.584 195.284 56.56 197.748 54.16ZM200.676 63.184C200.676 65.072 201.3 66.656 202.548 67.936C203.796 69.184 205.332 69.808 207.156 69.808C209.012 69.808 210.548 69.184 211.764 67.936C213.012 66.656 213.636 65.072 213.636 63.184C213.636 61.296 213.028 59.728 211.812 58.48C210.596 57.2 209.06 56.56 207.204 56.56C205.348 56.56 203.796 57.2 202.548 58.48C201.3 59.728 200.676 61.296 200.676 63.184Z" fill="#6108EF"/>
<path d="M226.71 54.208C228.95 51.84 231.734 50.656 235.062 50.656C238.038 50.656 240.566 51.744 242.646 53.92V41.392H249.366V75.232H242.79V72.352C240.71 74.624 238.07 75.76 234.87 75.76C231.574 75.76 228.822 74.56 226.614 72.16C224.438 69.76 223.35 66.768 223.35 63.184C223.35 59.6 224.47 56.608 226.71 54.208ZM231.894 67.888C233.078 69.168 234.566 69.808 236.358 69.808C238.214 69.808 239.75 69.184 240.966 67.936C242.214 66.688 242.838 65.12 242.838 63.232C242.838 61.376 242.214 59.824 240.966 58.576C239.75 57.296 238.23 56.656 236.406 56.656C234.614 56.656 233.11 57.296 231.894 58.576C230.678 59.824 230.07 61.376 230.07 63.232C230.07 65.088 230.678 66.64 231.894 67.888Z" fill="#6108EF"/>
<path d="M255.209 75.232V51.088H262.169V75.232H255.209ZM254.489 44.128C254.489 42.976 254.889 42 255.689 41.2C256.521 40.4 257.529 40 258.713 40C259.897 40 260.889 40.4 261.689 41.2C262.489 42 262.889 42.976 262.889 44.128C262.889 45.312 262.489 46.304 261.689 47.104C260.889 47.936 259.897 48.352 258.713 48.352C257.529 48.352 256.521 47.952 255.689 47.152C254.889 46.32 254.489 45.312 254.489 44.128Z" fill="#6108EF"/>
<path d="M266.71 62.8C266.71 59.312 267.814 56.416 270.022 54.112C272.23 51.776 274.982 50.608 278.278 50.608C281.446 50.608 284.086 51.712 286.198 53.92V51.088H292.726V73.312C292.726 77.248 291.494 80.288 289.03 82.432C286.598 84.608 283.206 85.696 278.854 85.696C275.366 85.696 272.022 84.912 268.822 83.344V77.392C271.83 79.088 274.982 79.936 278.278 79.936C280.742 79.936 282.662 79.36 284.038 78.208C285.446 77.088 286.15 75.424 286.15 73.216V71.488C284.166 73.728 281.526 74.848 278.23 74.848C274.902 74.848 272.15 73.712 269.974 71.44C267.798 69.168 266.71 66.288 266.71 62.8ZM275.254 67.456C276.438 68.672 277.942 69.28 279.766 69.28C281.558 69.28 283.046 68.688 284.23 67.504C285.446 66.288 286.054 64.768 286.054 62.944C286.054 61.12 285.462 59.6 284.278 58.384C283.094 57.168 281.606 56.56 279.814 56.56C277.99 56.56 276.47 57.168 275.254 58.384C274.07 59.6 273.478 61.136 273.478 62.992C273.478 64.784 274.07 66.272 275.254 67.456Z" fill="#6108EF"/>
<path d="M298.475 75.232V51.088H305.435V75.232H298.475ZM297.755 44.128C297.755 42.976 298.155 42 298.955 41.2C299.787 40.4 300.795 40 301.979 40C303.163 40 304.155 40.4 304.955 41.2C305.755 42 306.155 42.976 306.155 44.128C306.155 45.312 305.755 46.304 304.955 47.104C304.155 47.936 303.163 48.352 301.979 48.352C300.795 48.352 299.787 47.952 298.955 47.152C298.155 46.32 297.755 45.312 297.755 44.128Z" fill="#6108EF"/>
<path d="M309.4 51.088H313.336V43.648H320.152V51.088H326.776V56.896H320.152V66.16C320.152 67.408 320.392 68.32 320.872 68.896C321.384 69.472 322.28 69.76 323.56 69.76C324.968 69.76 326.312 69.504 327.592 68.992V74.656C325.704 75.392 323.736 75.76 321.688 75.76C318.872 75.76 316.776 75.056 315.4 73.648C314.024 72.208 313.336 70.224 313.336 67.696V56.896H309.4V51.088Z" fill="#6108EF"/>
<path d="M329.662 63.136C329.662 59.488 330.766 56.48 332.974 54.112C335.182 51.744 337.998 50.56 341.422 50.56C344.526 50.56 347.118 51.76 349.198 54.16V51.088H355.582V75.232H349.198V72.208C347.214 74.576 344.59 75.76 341.326 75.76C337.934 75.76 335.134 74.576 332.926 72.208C330.75 69.84 329.662 66.816 329.662 63.136ZM336.382 63.184C336.382 65.072 336.99 66.64 338.206 67.888C339.422 69.168 340.942 69.808 342.766 69.808C344.59 69.808 346.11 69.168 347.326 67.888C348.542 66.576 349.15 64.976 349.15 63.088C349.15 61.264 348.542 59.728 347.326 58.48C346.11 57.2 344.606 56.56 342.814 56.56C340.958 56.56 339.422 57.2 338.206 58.48C336.99 59.728 336.382 61.296 336.382 63.184Z" fill="#6108EF"/>
<path d="M368.388 41.584V75.232H361.428V41.584H368.388Z" fill="#6108EF"/>
</svg>
